<?xml version="1.0" standalone="no"?><!DOCTYPE svg PUBLIC "-//W3C//DTD SVG 1.1//EN" "http://www.w3.org/Graphics/SVG/1.1/DTD/svg11.dtd"><svg t="1688222493261" class="icon" viewBox="0 0 1024 1024" version="1.1" xmlns="http://www.w3.org/2000/svg" p-id="1599" xmlns:xlink="http://www.w3.org/1999/xlink" width="200" height="200"><path d="M531.2 162.6H499c-3.3 0-6-2.7-6-6V68.2c0-3.3 2.7-6 6-6h32.2c3.3 0 6 2.7 6 6v88.4c0 3.3-2.7 6-6 6zM537.2 481.5c0-12.2-10-22.1-22.1-22.1-12.2 0-22.1 10-22.1 22.1v398.7c0 0.7 0 1.4 0.1 2.1-0.1 0.7-0.1 1.4-0.1 2.2 0 17-13.8 30.8-30.8 30.8s-30.8-13.8-30.8-30.8c0-12.2-9.9-22.1-22.1-22.1-12.2 0-22.1 9.9-22.1 22.1 0 41.3 33.6 75 75 75s75-33.6 75-75c0-0.7 0-1.4-0.1-2.2 0.1-0.7 0.1-1.4 0.1-2.1V481.5z" fill="#FFF188" p-id="1600"></path><path d="M515 474.2c4 0 7.4 3.4 7.4 7.4V881l-0.1 1.4 0.1 1.4v0.7c0 33.2-27 60.2-60.2 60.2s-60.2-27-60.2-60.2c0-4.1 3.3-7.4 7.4-7.4 4.1 0 7.4 3.3 7.4 7.4 0 25.1 20.4 45.5 45.5 45.5s45.5-20.4 45.5-45.5v-0.7l0.1-1.4-0.1-1.4V481.5c-0.1-4 3.2-7.3 7.2-7.3m0-14.8c-12.2 0-22.1 10-22.1 22.1v398.7c0 0.7 0 1.4 0.1 2.1-0.1 0.7-0.1 1.4-0.1 2.2 0 17-13.8 30.8-30.8 30.8s-30.8-13.8-30.8-30.8c0-12.2-9.9-22.1-22.1-22.1-12.2 0-22.1 9.9-22.1 22.1 0 41.3 33.6 75 75 75s75-33.6 75-75c0-0.7 0-1.4-0.1-2.2 0.1-0.7 0.1-1.4 0.1-2.1V481.5c0.1-12.1-9.9-22.1-22.1-22.1zM515 76.9c4 0 7.4 3.4 7.4 7.4v56.2c0 4-3.4 7.4-7.4 7.4s-7.4-3.4-7.4-7.4V84.3c0.1-4 3.4-7.4 7.4-7.4m0-14.7c-12.2 0-22.1 10-22.1 22.1v56.2c0 12.2 10 22.1 22.1 22.1s22.1-10 22.1-22.1V84.3c0.1-12.2-9.9-22.1-22.1-22.1z" fill="" p-id="1601"></path><path d="M176 510.5c49.3 0 90.9 27.9 103.2 65.8 1 3.1 3.9 5.1 7.1 5.1h5.5c3.2 0 6.1-2 7.1-5.1 12.3-37.9 53.8-65.8 103.2-65.8 49.3 0 90.9 27.9 103.2 65.8 1 3.1 3.9 5.1 7.1 5.1h5.5c3.2 0 6.1-2 7.1-5.1 12.3-37.9 53.8-65.8 103.2-65.8 49.3 0 90.9 27.9 103.2 65.8 1 3.1 3.9 5.1 7.1 5.1h5.5c3.2 0 6.1-2 7.1-5.1 12.3-37.9 53.8-65.8 103.2-65.8s90.9 27.9 103.2 65.8c1 3.1 3.9 5.1 7.1 5.1 4.2 0 7.7-3.4 7.6-7.6-4.1-248.9-207.1-449.4-457-449.4S62.3 324.9 58.2 573.8c-0.1 4.2 3.4 7.6 7.6 7.6 3.2 0 6.1-2 7.1-5.1 12.2-37.9 53.7-65.8 103.1-65.8z" fill="#83CDFF" p-id="1602"></path><path d="M515 139.1c116.9 0 227.1 45.1 310.3 127.1 75.6 74.4 121.2 171.5 130.3 276.1-22.1-28.5-60-46.7-101.5-46.7-50.1 0-94.8 26.4-113 65.5-18.2-39-63-65.5-113-65.5-50.1 0-94.8 26.4-113 65.5-18.2-39-63-65.5-113-65.5-50.1 0-94.8 26.4-113 65.5-18.2-39-63-65.5-113-65.5-41.5 0-79.4 18.2-101.5 46.7 9.1-104.6 54.7-201.7 130.3-276.1C288 184.3 398.2 139.1 515 139.1m0-14.7c-249.9 0-452.9 200.5-457 449.4-0.1 4.2 3.4 7.6 7.6 7.6 3.2 0 6.1-2 7.1-5.1 12.3-37.9 53.8-65.8 103.2-65.8s90.9 27.9 103.2 65.8c1 3.1 3.9 5.1 7.1 5.1h5.5c3.2 0 6.1-2 7.1-5.1 12.3-37.9 53.8-65.8 103.2-65.8 49.3 0 90.9 27.9 103.2 65.8 1 3.1 3.9 5.1 7.1 5.1h5.5c3.2 0 6.1-2 7.1-5.1 12.3-37.9 53.8-65.8 103.2-65.8 49.3 0 90.9 27.9 103.2 65.8 1 3.1 3.9 5.1 7.1 5.1h5.5c3.2 0 6.1-2 7.1-5.1 12.3-37.9 53.8-65.8 103.2-65.8s90.9 27.9 103.2 65.8c1 3.1 3.9 5.1 7.1 5.1 4.2 0 7.7-3.4 7.6-7.6-4.2-248.9-207.2-449.4-457.1-449.4z" fill="" p-id="1603"></path><path d="M505.8 139.4v399c-22.5-26.5-58.6-42.7-98.3-42.7-47.7 0-91.7 22.2-112.8 55l11.5-356.3c61.1-33.8 129.6-52.7 199.6-55m14.8-15c-83.4 0-161.5 22.3-228.8 61.3l-12.7 390.6 14.1 4.6c2.1-0.8 5.3-3.6 6-5.8 12.3-37.9 58.9-64.6 108.3-64.6 45.3 0 83.9 23.5 99.5 56.7l13.6-0.9V124.4z" fill="" p-id="1604"></path><path d="M517.4 124.1C235 128.6 61.9 338.2 58.1 574.5c-0.1 4.2 3.4 7.6 7.6 7.6 3.2 0 6.1-2 7.1-5.1 12.3-37.9 53.8-65.8 103.2-65.8s93.8 26.4 103.2 65.1c1.8 7.5 14.1 4.7 14.1-1.6 0 0 46.1-394.4 224-444.7 14.5-4.1 15.2-6.2 0.1-5.9z" fill="#4F95FC" p-id="1605"></path><path d="M508.6 124.4v441.9l13.5 0.9c15.6-33.2 54.2-56.7 99.5-56.7 49.3 0 104.7 27.9 117 65.8 1 3.1 3.9 5.1 7.1 5.1l5.2-9.3c0.1 0-5.8-447.7-242.3-447.7z" fill="#4F95FC" p-id="1606"></path><path d="M472.7 141.4c-56 38.9-103.7 114.4-142.5 225.3-26.1 74.8-40.9 145.5-47.4 181.5-19.9-31-60.8-51.7-106.8-51.7-41.6 0-79.5 18.2-101.6 46.8 8.5-103.2 50.3-198.4 119.6-270.6 72.2-75.5 167.9-120.4 278.7-131.3m46.5-17.3h-1.8C235 128.6 61.9 338.2 58.1 574.5c-0.1 4.2 3.4 7.6 7.6 7.6 3.2 0 6.1-2 7.1-5.1 12.3-37.9 53.8-65.8 103.2-65.8s93.8 26.4 103.2 65.1c0.8 3.2 3.4 4.5 6.2 4.5 3.8 0 7.9-2.5 7.9-6.1 0 0 57.3-393.7 235.2-444 13.9-4 4.8-6.6-9.3-6.6z" fill="" p-id="1607"></path><path d="M523.4 139.8c43 3.9 80.3 25.4 111.3 63.9 28.6 35.6 52 85.7 69.5 148.9 20.4 73.8 27.9 148.3 30.6 189.4-26.7-29.2-73.9-46.3-113.1-46.3-39.7 0-75.8 16.2-98.3 42.7V139.8m-14.8-15.4v441.9l13.5 0.9c15.6-33.2 54.2-56.7 99.5-56.7 49.3 0 104.7 27.9 117 65.8 1 3.1 3.9 5.1 7.1 5.1l5.3-7.5c0 0.1-5.9-449.5-242.4-449.5z" fill="" p-id="1608"></path><path d="M523.4 139.8c43 3.9 80.3 25.3 111.3 63.6 28.6 35.5 52 85.4 69.5 148.3 20.7 74.5 28.1 149.9 30.7 190.4-26.7-29.2-73.9-46.3-113.2-46.3-39.7 0-75.8 16.2-98.3 42.7V139.8m-14.8-15.4v441.9l13.5 0.9c15.6-33.2 54.2-56.7 99.5-56.7 49.3 0 104.7 27.9 117 65.8 1 3.1 3.9 5.1 7.1 5.1l5.2-9.3c0.1 0-5.8-447.7-242.3-447.7z" fill="" p-id="1609"></path></svg>